#!OML:ASF F:\VICON\USERDATA\INSTALL\rory3\rory3.ASF
:FULLY-SPECIFIED
:DEGREES
236
root -6.3263 17.8813 11.3445 -3.6211 71.7293 -6.10679
lowerback 9.70917 2.47487 3.17191
upperback 0.288994 3.66542 0.092999
thorax -4.94721 1.74311 -2.18525
lowerneck -20.1507 -3.74158 -10.7486
upperneck 33.7887 -3.05699 6.17734
head 15.6013 -1.56454 3.99861
rclavicle -3.69056e-014 1.02374e-014
rhumerus -26.6123 -15.1582 -77.3965
rradius 34.9645
rwrist 2.00069
rhand -17.4792 7.72338
rfingers 7.12502
rthumb 8.77298 -22.0743
lclavicle -3.69056e-014 1.02374e-014
lhumerus -44.5422 30.3745 58.8912
lradius 15.9313
lwrist -32.6131
lhand -17.4301 30.2647
lfingers 7.12502
lthumb 8.82033 60.0603
rfemur 13.6939 -4.22323 19.5331
rtibia 26.8558
rfoot 5.81038 -1.56466
rtoes -10.1377
lfemur -21.0363 6.94469 -26.1435
ltibia 15.8875
lfoot 2.12169 3.84988
ltoes 23.042
237
root -6.18398 17.9037 11.3672 -3.28252 72.1846 -5.56653
lowerback 9.77282 2.43073 2.9322
upperback 0.351817 3.58266 0.109182
thorax -4.93729 1.70922 -2.0252
lowerneck -20.1147 -3.75227 -10.6056
upperneck 33.6645 -3.03915 5.92123
head 15.523 -1.57351 3.85875
rclavicle -8.19987e-015 -5.86415e-015
rhumerus -26.7877 -15.0809 -77.4426
rradius 35.4307
rwrist 1.6094
rhand -17.5632 7.6646
rfingers 7.12502
rthumb 8.69186 -22.1364
lclavicle -8.19987e-015 -5.86415e-015
lhumerus -45.6181 32.2919 56.9747
lradius 15.4748
lwrist -34.9218
lhand -16.4165 29.6663
lfingers 7.12502
lthumb 9.79829 59.4183
rfemur 12.818 -4.14984 19.2591
rtibia 28.946
rfoot 8.02183 -1.50816
rtoes -8.29037
lfemur -20.2328 7.03418 -26.4881
ltibia 15.6813
lfoot 2.18939 3.18179
ltoes 24.2672
238
root -6.04712 17.9238 11.3925 -2.81308 72.6473 -4.85424
lowerback 9.88 2.40025 2.62081
upperback 0.445242 3.51072 0.118998
thorax -4.9223 1.68264 -1.8343
lowerneck -20.1483 -3.77346 -10.4804
upperneck 33.5786 -3.04922 5.7372
head 15.4844 -1.58649 3.75081
rclavicle -5.2181e-016 -1.98785e-015
rhumerus -26.9126 -15.0981 -77.4979
rradius 35.8183
rwrist 1.47511
rhand -17.5145 7.86157
rfingers 7.12502
rthumb 8.73892 -21.9375
lclavicle -5.2181e-016 -1.98785e-015
lhumerus -46.2377 33.1538 56.1461
lradius 15.3197
lwrist -36.2657
lhand -15.6106 29.894
lfingers 7.12502
lthumb 10.5758 59.6079
rfemur 11.8505 -4.01718 18.9584
rtibia 31.2413
rfoot 10.0519 -1.24879
rtoes -7.49435
lfemur -19.3468 6.8361 -26.7467
ltibia 15.4254
lfoot 2.21444 2.92068
ltoes 26.6701
239
root -5.91276 17.9416 11.42 -2.25604 72.8805 -4.05018
lowerback 10.0435 2.4848 2.32471
upperback 0.510958 3.59283 0.0933094
thorax -4.9574 1.72979 -1.71327
lowerneck -20.1113 -3.86328 -10.6749
upperneck 33.4846 -3.18241 5.92246
head 15.4552 -1.64019 3.8358
rclavicle -3.98191e-014 -3.47873e-015
rhumerus -27.0977 -15.1193 -77.5162
rradius 36.1532
rwrist 1.30382
rhand -17.4987 8.08228
rfingers 7.12502
rthumb 8.75413 -21.7162
lclavicle -3.98191e-014 -3.47873e-015
lhumerus -46.3768 32.9692 56.3406
lradius 15.3095
lwrist -36.716
lhand -15.8069 30.8301
lfingers 7.12502
lthumb 10.3864 60.5536
rfemur 10.7557 -3.71935 18.5995
rtibia 33.7299
rfoot 11.9089 -0.763163
rtoes -7.46098
lfemur -18.4413 6.85673 -26.9918
ltibia 15.1169
lfoot 2.25318 2.8968
ltoes 28.1904
240
root -5.78382 17.9562 11.4536 -1.2391 72.6166 -2.74034
lowerback 10.2731 2.70803 1.71783
upperback 0.586888 3.82134 0.0245266
thorax -5.03098 1.855 -1.48768
lowerneck -20.1174 -3.91218 -10.806
upperneck 33.3361 -3.26136 6.06229
head 15.4012 -1.66965 3.89745
rclavicle 2.03879e-014 3.77691e-015
rhumerus -27.1694 -14.8291 -77.7218
rradius 36.4217
rwrist 0.964001
rhand -17.4305 8.20328
rfingers 7.12502
rthumb 8.81995 -21.5924
lclavicle 2.03879e-014 3.77691e-015
lhumerus -46.5273 32.9887 56.302
lradius 15.2783
lwrist -37.228
lhand -15.791 31.3731
lfingers 7.12502
lthumb 10.4018 61.0958
rfemur 9.51404 -3.14032 18.0703
rtibia 36.4199
rfoot 13.6161 0.00151543
rtoes -8.53305
lfemur -17.494 7.4667 -27.3645
ltibia 14.6946
lfoot 2.21671 2.71729
ltoes 29.3899
241
root -5.65583 17.9659 11.477 0.481635 73.0078 -0.799825
lowerback 10.3886 2.71258 1.08031
upperback 0.65452 3.74741 -0.123232
thorax -5.05782 1.83168 -1.27935
lowerneck -20.2372 -3.9586 -10.8248
upperneck 33.2622 -3.3156 6.06586
head 15.4008 -1.69376 3.88848
rclavicle -2.61153e-014 -4.17448e-015
rhumerus -27.1387 -14.7415 -77.907
rradius 36.5498
rwrist 1.08544
rhand -16.9549 8.32536
rfingers 7.12502
rthumb 9.27884 -21.4505
lclavicle -2.61153e-014 -4.17448e-015
lhumerus -46.2625 32.4365 56.8802
lradius 15.3151
lwrist -36.9675
lhand -15.2517 31.1542
lfingers 7.12502
lthumb 10.922 60.8501
rfemur 8.14843 -3.18727 17.3746
rtibia 39.2807
rfoot 15.1556 0.789831
rtoes -9.57961
lfemur -16.5694 7.93161 -28.0915
ltibia 14.0126
lfoot 2.4036 1.8987
ltoes 30.3604
